<?xml version="1.0" encoding="UTF-8" standalone="no"?>
<!DOCTYPE svg PUBLIC "-//W3C//DTD SVG 1.1//EN" "http://www.w3.org/Graphics/SVG/1.1/DTD/svg11.dtd">
<svg width="100%" height="100%" viewBox="0 0 500 500" version="1.1" xmlns="http://www.w3.org/2000/svg" xmlns:xlink="http://www.w3.org/1999/xlink" xml:space="preserve" xmlns:serif="http://www.serif.com/" style="fill-rule:evenodd;clip-rule:evenodd;stroke-linejoin:round;stroke-miterlimit:2;">
    <g transform="matrix(1.15795,0,0,1,-42.9069,25.6294)">
        <path d="M427.435,222.365L78.479,221.833C77.049,221.831 75.887,223.173 75.885,224.829C75.883,226.485 77.042,227.831 78.472,227.833L427.429,228.365C428.859,228.367 430.021,227.025 430.023,225.369C430.025,223.713 428.865,222.367 427.435,222.365Z" style="fill:white;"/>
        <path d="M77.1,227.375L152.662,282.191C153.873,283.07 155.474,282.645 156.233,281.242C156.992,279.839 156.624,277.986 155.413,277.107L79.851,222.291C78.639,221.412 77.039,221.837 76.28,223.24C75.521,224.643 75.888,226.496 77.1,227.375Z" style="fill:white;"/>
        <g transform="matrix(-1,0,0,1,233.93,-55.7408)">
            <path d="M79.851,222.291L155.413,277.107C156.624,277.986 156.992,279.839 156.233,281.242C155.474,282.645 153.873,283.07 152.662,282.191L77.1,227.375C75.888,226.496 75.521,224.643 76.28,223.24C77.039,221.837 78.639,221.412 79.851,222.291Z" style="fill:white;"/>
        </g>
    </g>
</svg>
